<?xml version="1.0" encoding="UTF-8" standalone="no"?>
<!-- Generator: Adobe Illustrator 16.0.0, SVG Export Plug-In . SVG Version: 6.00 Build 0)  -->

<svg
   xmlns:dc="http://purl.org/dc/elements/1.1/"
   xmlns:cc="http://creativecommons.org/ns#"
   xmlns:rdf="http://www.w3.org/1999/02/22-rdf-syntax-ns#"
   xmlns:svg="http://www.w3.org/2000/svg"
   xmlns="http://www.w3.org/2000/svg"
   xmlns:sodipodi="http://sodipodi.sourceforge.net/DTD/sodipodi-0.dtd"
   xmlns:inkscape="http://www.inkscape.org/namespaces/inkscape"
   version="1.1"
   id="Capa_1"
   x="0px"
   y="0px"
   width="459px"
   height="459px"
   viewBox="0 0 459 459"
   style="enable-background:new 0 0 459 459;"
   xml:space="preserve"
   inkscape:version="0.91 r13725"
   sodipodi:docname="back57.svg"><metadata
     id="metadata3437"><rdf:RDF><cc:Work
         rdf:about=""><dc:format>image/svg+xml</dc:format><dc:type
           rdf:resource="http://purl.org/dc/dcmitype/StillImage" /></cc:Work></rdf:RDF></metadata><defs
     id="defs3435" /><sodipodi:namedview
     pagecolor="#ffffff"
     bordercolor="#666666"
     borderopacity="1"
     objecttolerance="10"
     gridtolerance="10"
     guidetolerance="10"
     inkscape:pageopacity="0"
     inkscape:pageshadow="2"
     inkscape:window-width="1360"
     inkscape:window-height="702"
     id="namedview3433"
     showgrid="false"
     inkscape:zoom="1.1111111"
     inkscape:cx="87.3"
     inkscape:cy="229.5"
     inkscape:window-x="0"
     inkscape:window-y="27"
     inkscape:window-maximized="1"
     inkscape:current-layer="Capa_1" /><g
     id="g3398"><g
       id="reply"><path
         d="M178.5,140.25v-102L0,216.75l178.5,178.5V290.7c127.5,0,216.75,40.8,280.5,130.05C433.5,293.25,357,165.75,178.5,140.25z"
         id="path3401" /></g></g><g
     id="g3403" /><g
     id="g3405" /><g
     id="g3407" /><g
     id="g3409" /><g
     id="g3411" /><g
     id="g3413" /><g
     id="g3415" /><g
     id="g3417" /><g
     id="g3419" /><g
     id="g3421" /><g
     id="g3423" /><g
     id="g3425" /><g
     id="g3427" /><g
     id="g3429" /><g
     id="g3431" /><path
     style="fill:#4679bd;stroke:none;stroke-width:1px;stroke-linecap:butt;stroke-linejoin:miter;stroke-opacity:1;fill-opacity:1"
     d="M 449.92552,408.03076 C 392.29031,333.0295 308.26481,293.8827 198.675,290.97517 l -20.475,-0.54323 0,52.10846 0,52.10846 L 89.325567,305.77443 0.45113922,216.9 89.325567,128.02557 178.2,39.151139 l 0,50.607284 0,50.607287 2.025,0.44388 c 1.11375,0.24414 6.885,1.27844 12.825,2.29845 56.69498,9.73554 109.48102,33.52593 150.3,67.73941 45.44959,38.09474 79.84922,91.33356 101.07948,156.43631 5.79259,17.76302 13.11035,45.67241 12.61957,48.13013 -0.19659,0.98448 -2.63737,-1.54525 -7.12353,-7.38313 z"
     id="path3439"
     inkscape:connector-curvature="0" /></svg>