<?xml version="1.0" encoding="UTF-8" standalone="no"?>
<!-- Generator: Adobe Illustrator 16.0.0, SVG Export Plug-In . SVG Version: 6.00 Build 0)  -->

<svg
   xmlns:dc="http://purl.org/dc/elements/1.1/"
   xmlns:cc="http://creativecommons.org/ns#"
   xmlns:rdf="http://www.w3.org/1999/02/22-rdf-syntax-ns#"
   xmlns:svg="http://www.w3.org/2000/svg"
   xmlns="http://www.w3.org/2000/svg"
   xmlns:sodipodi="http://sodipodi.sourceforge.net/DTD/sodipodi-0.dtd"
   xmlns:inkscape="http://www.inkscape.org/namespaces/inkscape"
   version="1.1"
   id="Capa_1"
   x="0px"
   y="0px"
   width="373.008px"
   height="373.008px"
   viewBox="0 0 373.008 373.008"
   style="enable-background:new 0 0 373.008 373.008;"
   xml:space="preserve"
   inkscape:version="0.91 r13725"
   sodipodi:docname="media23.svg"><metadata
     id="metadata6403"><rdf:RDF><cc:Work
         rdf:about=""><dc:format>image/svg+xml</dc:format><dc:type
           rdf:resource="http://purl.org/dc/dcmitype/StillImage" /></cc:Work></rdf:RDF></metadata><defs
     id="defs6401" /><sodipodi:namedview
     pagecolor="#ffffff"
     bordercolor="#666666"
     borderopacity="1"
     objecttolerance="10"
     gridtolerance="10"
     guidetolerance="10"
     inkscape:pageopacity="0"
     inkscape:pageshadow="2"
     inkscape:window-width="640"
     inkscape:window-height="480"
     id="namedview6399"
     showgrid="false"
     inkscape:zoom="0.63269421"
     inkscape:cx="186.504"
     inkscape:cy="186.504"
     inkscape:window-x="0"
     inkscape:window-y="27"
     inkscape:window-maximized="0"
     inkscape:current-layer="Capa_1" /><g
     id="g6364"><g
       id="Layer_8_16_"><path
         d="M61.792,2.588C64.771,0.864,68.105,0,71.444,0c3.33,0,6.663,0.864,9.655,2.588l230.116,167.2    c5.963,3.445,9.656,9.823,9.656,16.719c0,6.895-3.683,13.272-9.656,16.713L81.099,370.427c-5.972,3.441-13.334,3.441-19.302,0    c-5.973-3.453-9.66-9.833-9.66-16.724V19.305C52.137,12.413,55.818,6.036,61.792,2.588z"
         id="path6367" /></g></g><g
     id="g6369" /><g
     id="g6371" /><g
     id="g6373" /><g
     id="g6375" /><g
     id="g6377" /><g
     id="g6379" /><g
     id="g6381" /><g
     id="g6383" /><g
     id="g6385" /><g
     id="g6387" /><g
     id="g6389" /><g
     id="g6391" /><g
     id="g6393" /><g
     id="g6395" /><g
     id="g6397" /><path
     style="fill:#ffffff"
     d="m 62.902566,369.73183 c -10.384852,-5.11795 -9.796343,5.87986 -9.796343,-183.06978 0,-188.4801128 -0.530734,-178.1644766 9.431518,-183.3161574 7.146092,-3.69538772 13.183932,-2.92051659 21.625366,2.7753094 4.216522,2.8450822 58.196283,41.893075 119.955033,86.773318 74.39478,54.06287 112.9317,83.01181 114.19419,85.78268 2.67207,5.86457 2.35522,12.01391 -0.87081,16.89985 -2.33537,3.537 -229.601407,170.16326 -238.817709,175.09568 -4.44339,2.37804 -9.614798,2.06852 -15.721245,-0.9409 z"
     id="path6405"
     inkscape:connector-curvature="0" /></svg>