<?xml version="1.0" encoding="UTF-8" standalone="no"?>
<!-- Generator: Adobe Illustrator 16.0.0, SVG Export Plug-In . SVG Version: 6.00 Build 0)  -->

<svg
   xmlns:dc="http://purl.org/dc/elements/1.1/"
   xmlns:cc="http://creativecommons.org/ns#"
   xmlns:rdf="http://www.w3.org/1999/02/22-rdf-syntax-ns#"
   xmlns:svg="http://www.w3.org/2000/svg"
   xmlns="http://www.w3.org/2000/svg"
   xmlns:sodipodi="http://sodipodi.sourceforge.net/DTD/sodipodi-0.dtd"
   xmlns:inkscape="http://www.inkscape.org/namespaces/inkscape"
   version="1.1"
   id="Capa_1"
   x="0px"
   y="0px"
   width="356.919px"
   height="356.918px"
   viewBox="0 0 356.919 356.918"
   style="enable-background:new 0 0 356.919 356.918;"
   xml:space="preserve"
   inkscape:version="0.91 r13725"
   sodipodi:docname="pause18.svg"><metadata
     id="metadata6850"><rdf:RDF><cc:Work
         rdf:about=""><dc:format>image/svg+xml</dc:format><dc:type
           rdf:resource="http://purl.org/dc/dcmitype/StillImage" /></cc:Work></rdf:RDF></metadata><defs
     id="defs6848" /><sodipodi:namedview
     pagecolor="#ffffff"
     bordercolor="#666666"
     borderopacity="1"
     objecttolerance="10"
     gridtolerance="10"
     guidetolerance="10"
     inkscape:pageopacity="0"
     inkscape:pageshadow="2"
     inkscape:window-width="640"
     inkscape:window-height="480"
     id="namedview6846"
     showgrid="false"
     inkscape:zoom="0.6612163"
     inkscape:cx="178.4595"
     inkscape:cy="178.459"
     inkscape:window-x="0"
     inkscape:window-y="27"
     inkscape:window-maximized="0"
     inkscape:current-layer="Capa_1" /><g
     id="g6811"><g
       id="Layer_8"><path
         d="M301.201,7.721V349.19c0,4.269-3.457,7.729-7.715,7.729h-63.705c-4.268,0-7.727-3.46-7.727-7.729V7.721    c0-4.263,3.459-7.721,7.727-7.721h63.705C297.744,0,301.201,3.458,301.201,7.721z M127.142,0H63.438    c-4.266,0-7.721,3.458-7.721,7.721V349.19c0,4.269,3.455,7.729,7.721,7.729h63.703c4.265,0,7.723-3.46,7.723-7.729V7.721    C134.864,3.458,131.407,0,127.142,0z"
         id="path6814" /></g></g><g
     id="g6816" /><g
     id="g6818" /><g
     id="g6820" /><g
     id="g6822" /><g
     id="g6824" /><g
     id="g6826" /><g
     id="g6828" /><g
     id="g6830" /><g
     id="g6832" /><g
     id="g6834" /><g
     id="g6836" /><g
     id="g6838" /><g
     id="g6840" /><g
     id="g6842" /><g
     id="g6844" /><path
     style="fill:#ffffff"
     d="m 58.680242,354.49822 c -2.634797,-2.6348 -2.634797,-349.1411662 0,-351.7759641 2.576142,-2.57614117 70.924768,-2.57614117 73.500908,0 1.39045,1.3904488 1.81484,42.3894131 1.81484,175.3262441 0,155.72116 -0.24367,173.75508 -2.37657,175.88798 -2.02111,2.02111 -7.51796,2.37657 -36.750459,2.37657 -24.718755,0 -34.883643,-0.50975 -36.188719,-1.81483 z"
     id="path6852"
     inkscape:connector-curvature="0" /><path
     style="fill:#ffffff"
     d="m 225.04033,354.49822 c -2.6348,-2.6348 -2.6348,-349.1411662 0,-351.7759641 2.57614,-2.57614117 70.92476,-2.57614117 73.50091,0 1.39044,1.3904488 1.81483,42.3894131 1.81483,175.3262441 0,155.72116 -0.24367,173.75508 -2.37657,175.88798 -2.0211,2.02111 -7.51796,2.37657 -36.75045,2.37657 -24.71876,0 -34.88365,-0.50975 -36.18872,-1.81483 z"
     id="path6854"
     inkscape:connector-curvature="0" /></svg>