<?xml version="1.0" encoding="UTF-8" standalone="no"?>
<!-- Generator: Adobe Illustrator 16.0.0, SVG Export Plug-In . SVG Version: 6.00 Build 0)  -->

<svg
   xmlns:osb="http://www.openswatchbook.org/uri/2009/osb"
   xmlns:dc="http://purl.org/dc/elements/1.1/"
   xmlns:cc="http://creativecommons.org/ns#"
   xmlns:rdf="http://www.w3.org/1999/02/22-rdf-syntax-ns#"
   xmlns:svg="http://www.w3.org/2000/svg"
   xmlns="http://www.w3.org/2000/svg"
   xmlns:xlink="http://www.w3.org/1999/xlink"
   xmlns:sodipodi="http://sodipodi.sourceforge.net/DTD/sodipodi-0.dtd"
   xmlns:inkscape="http://www.inkscape.org/namespaces/inkscape"
   version="1.1"
   id="Capa_1"
   x="0px"
   y="0px"
   width="612px"
   height="612px"
   viewBox="0 0 612 612"
   style="enable-background:new 0 0 612 612;"
   xml:space="preserve"
   inkscape:version="0.91 r13725"
   sodipodi:docname="plus79.svg"><metadata
     id="metadata3755"><rdf:RDF><cc:Work
         rdf:about=""><dc:format>image/svg+xml</dc:format><dc:type
           rdf:resource="http://purl.org/dc/dcmitype/StillImage" /></cc:Work></rdf:RDF></metadata><defs
     id="defs3753"><linearGradient
       id="linearGradient4557"
       osb:paint="solid"><stop
         style="stop-color:#000000;stop-opacity:1;"
         offset="0"
         id="stop4559" /></linearGradient><linearGradient
       inkscape:collect="always"
       xlink:href="#linearGradient4557"
       id="linearGradient4561"
       x1="0"
       y1="306"
       x2="612"
       y2="306"
       gradientUnits="userSpaceOnUse" /></defs><sodipodi:namedview
     pagecolor="#ffffff"
     bordercolor="#666666"
     borderopacity="1"
     objecttolerance="10"
     gridtolerance="10"
     guidetolerance="10"
     inkscape:pageopacity="0"
     inkscape:pageshadow="2"
     inkscape:window-width="1360"
     inkscape:window-height="702"
     id="namedview3751"
     showgrid="false"
     inkscape:zoom="0.83333333"
     inkscape:cx="117.6"
     inkscape:cy="306"
     inkscape:window-x="0"
     inkscape:window-y="27"
     inkscape:window-maximized="1"
     inkscape:current-layer="Capa_1" /><g
     id="g3714"
     style="stroke:url(#linearGradient4561);fill:#ffffff"><g
       id="plus"
       style="stroke:url(#linearGradient4561);fill:#ffffff"><g
         id="g3717"
         style="stroke:url(#linearGradient4561);fill:#ffffff"><polygon
           points="612,286.893 325.116,286.893 325.116,0.296 286.903,0.296 286.903,286.893 0,286.893 0,325.107 286.903,325.107      286.903,611.704 325.116,611.704 325.116,325.107 612,325.107    "
           id="polygon3719"
           style="stroke:url(#linearGradient4561);fill:#ffffff" /></g></g></g><g
     id="g3721" /><g
     id="g3723" /><g
     id="g3725" /><g
     id="g3727" /><g
     id="g3729" /><g
     id="g3731" /><g
     id="g3733" /><g
     id="g3735" /><g
     id="g3737" /><g
     id="g3739" /><g
     id="g3741" /><g
     id="g3743" /><g
     id="g3745" /><g
     id="g3747" /><g
     id="g3749" /><path
     style="fill:#ffffff"
     d="m 288,467.4 0,-143.4 -143.4,0 -143.4,0 0,-18 0,-18 143.4,0 143.4,0 0,-143.4 0,-143.4 18,0 18,0 0,143.4 0,143.4 143.4,0 143.4,0 0,18 0,18 -143.4,0 -143.4,0 0,143.4 0,143.4 -18,0 -18,0 0,-143.4 z"
     id="path4563"
     inkscape:connector-curvature="0" /></svg>