<?xml version="1.0" encoding="UTF-8" standalone="no"?>
<!-- Generator: Adobe Illustrator 18.1.1, SVG Export Plug-In . SVG Version: 6.00 Build 0)  -->

<svg
   xmlns:dc="http://purl.org/dc/elements/1.1/"
   xmlns:cc="http://creativecommons.org/ns#"
   xmlns:rdf="http://www.w3.org/1999/02/22-rdf-syntax-ns#"
   xmlns:svg="http://www.w3.org/2000/svg"
   xmlns="http://www.w3.org/2000/svg"
   xmlns:sodipodi="http://sodipodi.sourceforge.net/DTD/sodipodi-0.dtd"
   xmlns:inkscape="http://www.inkscape.org/namespaces/inkscape"
   version="1.1"
   id="Capa_1"
   x="0px"
   y="0px"
   viewBox="0 0 232.679 232.679"
   style="enable-background:new 0 0 232.679 232.679;"
   xml:space="preserve"
   inkscape:version="0.91 r13725"
   sodipodi:docname="stop4.svg"><metadata
     id="metadata5405"><rdf:RDF><cc:Work
         rdf:about=""><dc:format>image/svg+xml</dc:format><dc:type
           rdf:resource="http://purl.org/dc/dcmitype/StillImage" /></cc:Work></rdf:RDF></metadata><defs
     id="defs5403" /><sodipodi:namedview
     pagecolor="#ffffff"
     bordercolor="#666666"
     borderopacity="1"
     objecttolerance="10"
     gridtolerance="10"
     guidetolerance="10"
     inkscape:pageopacity="0"
     inkscape:pageshadow="2"
     inkscape:window-width="1360"
     inkscape:window-height="702"
     id="namedview5401"
     showgrid="false"
     inkscape:zoom="1.0142729"
     inkscape:cx="116.3395"
     inkscape:cy="116.3395"
     inkscape:window-x="0"
     inkscape:window-y="27"
     inkscape:window-maximized="1"
     inkscape:current-layer="Capa_1" /><g
     id="Stop"><path
       style="fill-rule:evenodd;clip-rule:evenodd;"
       d="M214.781,0H17.898C8.013,0,0,8.014,0,17.898v196.883   c0,9.885,8.013,17.898,17.898,17.898h196.883c9.886,0,17.898-8.013,17.898-17.898V17.898C232.679,8.014,224.666,0,214.781,0z"
       id="path5369" /></g><g
     id="g5371" /><g
     id="g5373" /><g
     id="g5375" /><g
     id="g5377" /><g
     id="g5379" /><g
     id="g5381" /><g
     id="g5383" /><g
     id="g5385" /><g
     id="g5387" /><g
     id="g5389" /><g
     id="g5391" /><g
     id="g5393" /><g
     id="g5395" /><g
     id="g5397" /><g
     id="g5399" /><path
     style="fill:#ffffff"
     d="M 14.045489,231.59953 C 8.6560463,230.31707 5.0261375,227.41407 2.6345325,222.47367 0.56707363,218.20287 0.56487294,218.07243 0.82453886,115.1886 L 1.0845208,12.179528 3.7078407,8.215708 C 5.1506668,6.0356071 8.0345061,3.4061303 10.116372,2.3724261 13.766425,0.56007393 17.562855,0.49296398 116.43809,0.49296398 l 102.53651,0 3.96065,2.27087492 c 2.17835,1.2489812 5.06219,3.8784795 6.40853,5.8433297 l 2.44789,3.5724554 0,104.159876 0,104.15988 -2.44789,3.57245 c -1.34634,1.96486 -4.23018,4.59436 -6.40853,5.84333 l -3.96065,2.27088 -100.56465,0.15884 c -58.182437,0.0919 -102.166054,-0.22223 -104.364461,-0.74535 z"
     id="path5407"
     inkscape:connector-curvature="0" /></svg>